<svg width="1061" height="994" viewBox="0 0 1061 994" fill="none" xmlns="http://www.w3.org/2000/svg">
<rect width="1061" height="994" fill="black"/>
<mask id="path-1-outside-1_11_2" maskUnits="userSpaceOnUse" x="123" y="267" width="730" height="591" fill="black">
<rect fill="white" x="123" y="267" width="730" height="591"/>
<path d="M124.839 779.655C137.743 771.8 148.777 763.572 157.94 754.969C167.291 746.366 174.959 736.829 180.943 726.356C186.928 716.07 191.322 704.569 194.128 691.852C196.933 678.948 198.335 664.361 198.335 648.091V268.545H287.261V632.101C287.261 651.55 286.419 669.317 284.736 685.4C283.053 701.296 280.248 715.883 276.32 729.161C272.58 742.626 267.437 754.969 260.892 766.19C254.533 777.411 246.585 788.071 237.047 798.169C227.697 808.268 216.569 817.993 203.665 827.344C190.948 836.694 176.174 846.139 159.343 855.676L124.839 779.655ZM400.872 268.545H489.797V382.998H762.464V268.545H851.669V707H762.464V459.019H489.797V707H400.872V268.545Z"/>
</mask>
<path d="M124.839 779.655C137.743 771.8 148.777 763.572 157.94 754.969C167.291 746.366 174.959 736.829 180.943 726.356C186.928 716.07 191.322 704.569 194.128 691.852C196.933 678.948 198.335 664.361 198.335 648.091V268.545H287.261V632.101C287.261 651.55 286.419 669.317 284.736 685.4C283.053 701.296 280.248 715.883 276.32 729.161C272.58 742.626 267.437 754.969 260.892 766.19C254.533 777.411 246.585 788.071 237.047 798.169C227.697 808.268 216.569 817.993 203.665 827.344C190.948 836.694 176.174 846.139 159.343 855.676L124.839 779.655ZM400.872 268.545H489.797V382.998H762.464V268.545H851.669V707H762.464V459.019H489.797V707H400.872V268.545Z" fill="white"/>
<path d="M124.839 779.655L124.319 778.801L123.562 779.261L123.928 780.068L124.839 779.655ZM157.94 754.969L157.263 754.233L157.256 754.24L157.94 754.969ZM180.943 726.356L180.079 725.853L180.075 725.86L180.943 726.356ZM194.128 691.852L195.104 692.067L195.105 692.064L194.128 691.852ZM198.335 268.545V267.545H197.335V268.545H198.335ZM287.261 268.545H288.261V267.545H287.261V268.545ZM284.736 685.4L285.73 685.505L285.73 685.504L284.736 685.4ZM276.32 729.161L275.361 728.878L275.359 728.885L275.357 728.894L276.32 729.161ZM260.892 766.19L260.028 765.686L260.022 765.697L260.892 766.19ZM237.047 798.169L236.32 797.483L236.314 797.49L237.047 798.169ZM203.665 827.344L203.079 826.534L203.073 826.538L203.665 827.344ZM159.343 855.676L158.432 856.09L158.884 857.086L159.836 856.546L159.343 855.676ZM124.839 779.655L125.359 780.509C138.31 772.626 149.402 764.356 158.625 755.698L157.94 754.969L157.256 754.24C148.151 762.787 137.175 770.975 124.319 778.801L124.839 779.655ZM157.94 754.969L158.617 755.705C168.04 747.036 175.773 737.419 181.811 726.852L180.943 726.356L180.075 725.86C174.144 736.239 166.542 745.696 157.263 754.233L157.94 754.969ZM180.943 726.356L181.807 726.859C187.849 716.476 192.279 704.876 195.104 692.067L194.128 691.852L193.151 691.636C190.366 704.262 186.006 715.665 180.079 725.853L180.943 726.356ZM194.128 691.852L195.105 692.064C197.928 679.077 199.335 664.416 199.335 648.091H198.335H197.335C197.335 664.305 195.937 678.819 193.15 691.639L194.128 691.852ZM198.335 648.091H199.335V268.545H198.335H197.335V648.091H198.335ZM198.335 268.545V269.545H287.261V268.545V267.545H198.335V268.545ZM287.261 268.545H286.261V632.101H287.261H288.261V268.545H287.261ZM287.261 632.101H286.261C286.261 651.522 285.42 669.253 283.741 685.296L284.736 685.4L285.73 685.504C287.418 669.38 288.261 651.578 288.261 632.101H287.261ZM284.736 685.4L283.741 685.295C282.064 701.139 279.269 715.666 275.361 728.878L276.32 729.161L277.279 729.445C281.226 716.1 284.042 701.453 285.73 685.505L284.736 685.4ZM276.32 729.161L275.357 728.894C271.638 742.282 266.527 754.545 260.028 765.686L260.892 766.19L261.755 766.694C268.347 755.393 273.522 742.97 277.284 729.429L276.32 729.161ZM260.892 766.19L260.022 765.697C253.706 776.843 245.807 787.438 236.32 797.483L237.047 798.169L237.774 798.856C247.363 788.703 255.361 777.979 261.762 766.683L260.892 766.19ZM237.047 798.169L236.314 797.49C227.014 807.534 215.937 817.216 203.079 826.534L203.665 827.344L204.252 828.153C217.201 818.77 228.379 809.003 237.781 798.849L237.047 798.169ZM203.665 827.344L203.073 826.538C190.394 835.861 175.654 845.284 158.85 854.806L159.343 855.676L159.836 856.546C176.694 846.993 191.503 837.528 204.258 828.149L203.665 827.344ZM159.343 855.676L160.254 855.263L125.749 779.242L124.839 779.655L123.928 780.068L158.432 856.09L159.343 855.676ZM400.872 268.545V267.545H399.872V268.545H400.872ZM489.797 268.545H490.797V267.545H489.797V268.545ZM489.797 382.998H488.797V383.998H489.797V382.998ZM762.464 382.998V383.998H763.464V382.998H762.464ZM762.464 268.545V267.545H761.464V268.545H762.464ZM851.669 268.545H852.669V267.545H851.669V268.545ZM851.669 707V708H852.669V707H851.669ZM762.464 707H761.464V708H762.464V707ZM762.464 459.019H763.464V458.019H762.464V459.019ZM489.797 459.019V458.019H488.797V459.019H489.797ZM489.797 707V708H490.797V707H489.797ZM400.872 707H399.872V708H400.872V707ZM400.872 268.545V269.545H489.797V268.545V267.545H400.872V268.545ZM489.797 268.545H488.797V382.998H489.797H490.797V268.545H489.797ZM489.797 382.998V383.998H762.464V382.998V381.998H489.797V382.998ZM762.464 382.998H763.464V268.545H762.464H761.464V382.998H762.464ZM762.464 268.545V269.545H851.669V268.545V267.545H762.464V268.545ZM851.669 268.545H850.669V707H851.669H852.669V268.545H851.669ZM851.669 707V706H762.464V707V708H851.669V707ZM762.464 707H763.464V459.019H762.464H761.464V707H762.464ZM762.464 459.019V458.019H489.797V459.019V460.019H762.464V459.019ZM489.797 459.019H488.797V707H489.797H490.797V459.019H489.797ZM489.797 707V706H400.872V707V708H489.797V707ZM400.872 707H401.872V268.545H400.872H399.872V707H400.872Z" fill="white" mask="url(#path-1-outside-1_11_2)"/>
<path d="M325.479 736.007H343.846V826H325.479V736.007ZM365.495 758.059H382.538V763.817C386.798 761.207 390.944 759.403 394.974 758.405C399.043 757.368 403.016 756.85 406.893 756.85C412.305 756.85 417.276 757.714 421.805 759.441C426.335 761.168 430.211 763.779 433.436 767.272C435.931 765.352 438.387 763.74 440.806 762.435C443.224 761.092 445.642 760.017 448.06 759.211C450.479 758.366 452.935 757.771 455.43 757.426C457.925 757.042 460.497 756.85 463.145 756.85C468.711 756.85 473.759 757.618 478.288 759.153C482.818 760.65 486.675 762.896 489.861 765.89C493.086 768.884 495.561 772.626 497.289 777.117C499.054 781.57 499.937 786.733 499.937 792.605V826H482.952V795.369C482.952 791.646 482.415 788.325 481.34 785.408C480.303 782.453 478.826 779.977 476.906 777.981C475.026 775.946 472.761 774.411 470.112 773.375C467.502 772.3 464.623 771.763 461.476 771.763C459.748 771.763 457.983 771.935 456.179 772.281C454.375 772.588 452.609 773.087 450.882 773.778C449.193 774.469 447.6 775.351 446.103 776.426C444.606 777.463 443.301 778.691 442.187 780.111V826H425.202V795.369C425.202 791.646 424.665 788.325 423.59 785.408C422.554 782.453 421.076 779.977 419.157 777.981C417.276 775.946 414.992 774.411 412.305 773.375C409.657 772.3 406.739 771.763 403.553 771.763C401.596 771.763 399.619 771.974 397.623 772.396C395.665 772.78 393.765 773.336 391.923 774.066C390.119 774.795 388.411 775.678 386.798 776.714C385.225 777.751 383.804 778.921 382.538 780.226V826H365.495V758.059ZM537.996 853.752H520.953V758.059H537.996V764.45C539.493 763.414 541.258 762.435 543.293 761.514C545.327 760.593 547.515 759.787 549.856 759.096C552.198 758.405 554.616 757.867 557.111 757.483C559.606 757.061 562.101 756.85 564.596 756.85C570.354 756.85 575.632 757.695 580.43 759.383C585.266 761.072 589.412 763.452 592.866 766.523C596.321 769.594 599.008 773.279 600.927 777.578C602.885 781.838 603.864 786.56 603.864 791.742C603.864 797.154 602.846 802.048 600.812 806.424C598.778 810.761 595.956 814.485 592.348 817.594C588.778 820.665 584.518 823.044 579.566 824.733C574.653 826.384 569.317 827.209 563.56 827.209C561.103 827.209 558.666 827.056 556.247 826.749C553.868 826.441 551.564 826.019 549.338 825.482C547.15 824.944 545.077 824.311 543.12 823.582C541.201 822.814 539.493 821.989 537.996 821.106V853.752ZM537.996 804.639C539.723 806.021 541.546 807.192 543.465 808.151C545.385 809.111 547.342 809.898 549.338 810.512C551.334 811.126 553.349 811.587 555.384 811.894C557.418 812.162 559.395 812.297 561.314 812.297C565.229 812.297 568.703 811.778 571.736 810.742C574.806 809.667 577.378 808.209 579.451 806.366C581.562 804.524 583.174 802.355 584.287 799.86C585.401 797.365 585.957 794.659 585.957 791.742C585.957 789.016 585.401 786.445 584.287 784.026C583.213 781.608 581.639 779.497 579.566 777.693C577.532 775.85 575.056 774.411 572.139 773.375C569.26 772.3 566.016 771.763 562.408 771.763C560.105 771.763 557.802 771.993 555.499 772.453C553.196 772.876 550.97 773.49 548.82 774.296C546.709 775.102 544.713 776.081 542.832 777.232C540.99 778.384 539.377 779.67 537.996 781.09V804.639ZM615.897 792.03C615.897 787.155 616.876 782.587 618.834 778.326C620.83 774.066 623.651 770.342 627.297 767.156C630.982 763.97 635.416 761.456 640.598 759.614C645.818 757.771 651.672 756.85 658.159 756.85C664.646 756.85 670.48 757.771 675.662 759.614C680.882 761.456 685.316 763.97 688.962 767.156C692.647 770.342 695.468 774.066 697.426 778.326C699.422 782.587 700.42 787.155 700.42 792.03C700.42 796.904 699.422 801.472 697.426 805.733C695.468 809.994 692.647 813.717 688.962 816.903C685.316 820.089 680.882 822.603 675.662 824.445C670.48 826.288 664.646 827.209 658.159 827.209C651.672 827.209 645.818 826.288 640.598 824.445C635.416 822.603 630.982 820.089 627.297 816.903C623.651 813.717 620.83 809.994 618.834 805.733C616.876 801.472 615.897 796.904 615.897 792.03ZM633.804 792.03C633.804 794.755 634.341 797.346 635.416 799.802C636.529 802.221 638.122 804.37 640.195 806.251C642.306 808.094 644.858 809.571 647.852 810.685C650.885 811.759 654.32 812.297 658.159 812.297C661.997 812.297 665.413 811.759 668.407 810.685C671.44 809.571 673.992 808.094 676.065 806.251C678.176 804.37 679.769 802.221 680.844 799.802C681.957 797.346 682.514 794.755 682.514 792.03C682.514 789.304 681.957 786.713 680.844 784.257C679.769 781.8 678.176 779.651 676.065 777.808C673.992 775.927 671.44 774.449 668.407 773.375C665.413 772.262 661.997 771.705 658.159 771.705C654.32 771.705 650.885 772.262 647.852 773.375C644.858 774.449 642.306 775.927 640.195 777.808C638.122 779.651 636.529 781.8 635.416 784.257C634.341 786.713 633.804 789.304 633.804 792.03ZM717.636 758.059H734.678V767.847C738.44 765.045 742.413 762.627 746.597 760.593C750.781 758.558 754.945 757.004 759.091 755.929L764.1 771.532C757.536 772.185 751.76 773.663 746.77 775.966C741.818 778.23 737.788 781.435 734.678 785.581V826H717.636V758.059ZM787.073 770.841H770.664V758.059H787.073V736.928H804.116V758.059H820.526V770.841H804.116V826H787.073V770.841ZM838.374 805.157C842.981 807.921 848.047 809.955 853.575 811.26C859.102 812.565 864.764 813.218 870.56 813.218C874.475 813.218 877.738 812.949 880.348 812.412C882.958 811.874 885.05 811.184 886.624 810.339C888.198 809.495 889.311 808.535 889.963 807.46C890.616 806.385 890.942 805.291 890.942 804.178C890.942 802.566 890.232 801.184 888.812 800.033C887.43 798.881 885.127 798.305 881.903 798.305C880.406 798.305 878.794 798.401 877.066 798.593C875.339 798.785 873.516 798.996 871.596 799.227C869.716 799.419 867.739 799.611 865.666 799.802C863.632 799.994 861.559 800.09 859.448 800.09C854.841 800.09 850.907 799.591 847.644 798.593C844.42 797.595 841.791 796.233 839.756 794.505C837.722 792.778 836.244 790.744 835.323 788.402C834.402 786.022 833.941 783.47 833.941 780.745C833.941 777.29 834.747 774.104 836.359 771.187C837.971 768.27 840.275 765.755 843.269 763.644C846.263 761.495 849.871 759.825 854.093 758.635C858.354 757.445 863.094 756.85 868.314 756.85C871.04 756.85 873.88 757.023 876.836 757.368C879.83 757.675 882.766 758.098 885.645 758.635C888.524 759.172 891.288 759.806 893.936 760.535C896.585 761.226 898.926 761.974 900.961 762.781L895.606 776.023C891.269 774.411 886.931 773.144 882.594 772.223C878.295 771.264 873.861 770.784 869.293 770.784C866.107 770.784 863.401 771.033 861.175 771.532C858.987 771.993 857.202 772.626 855.82 773.432C854.438 774.2 853.421 775.102 852.769 776.138C852.155 777.136 851.847 778.192 851.847 779.305C851.847 780.111 852.001 780.84 852.308 781.493C852.654 782.146 853.191 782.721 853.92 783.22C854.688 783.681 855.667 784.046 856.857 784.314C858.085 784.545 859.582 784.66 861.348 784.66C862.96 784.66 864.668 784.564 866.472 784.372C868.276 784.18 870.157 783.988 872.115 783.796C874.072 783.566 876.087 783.355 878.16 783.163C880.271 782.971 882.421 782.875 884.609 782.875C888.678 782.875 892.228 783.355 895.261 784.314C898.331 785.274 900.865 786.617 902.861 788.345C904.857 790.072 906.354 792.106 907.352 794.448C908.35 796.789 908.849 799.342 908.849 802.106C908.849 805.675 908.023 808.996 906.373 812.066C904.722 815.137 902.266 817.805 899.003 820.07C895.74 822.296 891.672 824.042 886.797 825.309C881.96 826.576 876.356 827.209 869.984 827.209C866.069 827.209 862.288 826.96 858.642 826.461C854.995 826 851.521 825.367 848.22 824.561C844.919 823.716 841.81 822.737 838.893 821.624C836.014 820.511 833.384 819.321 831.005 818.054L838.374 805.157Z" fill="white"/>
</svg>
